<svg width="43" height="42" viewBox="0 0 43 42" fill="none" xmlns="http://www.w3.org/2000/svg">
<rect x="0.888184" width="42" height="42" rx="8" fill="#283036"/>
<path d="M24.3882 23.25H23.1382V22C23.1382 21.6685 23.0065 21.3505 22.7721 21.1161C22.5376 20.8817 22.2197 20.75 21.8882 20.75C21.5567 20.75 21.2387 20.8817 21.0043 21.1161C20.7699 21.3505 20.6382 21.6685 20.6382 22V23.25H19.3882C19.0567 23.25 18.7387 23.3817 18.5043 23.6161C18.2699 23.8505 18.1382 24.1685 18.1382 24.5C18.1382 24.8315 18.2699 25.1495 18.5043 25.3839C18.7387 25.6183 19.0567 25.75 19.3882 25.75H20.6382V27C20.6382 27.3315 20.7699 27.6495 21.0043 27.8839C21.2387 28.1183 21.5567 28.25 21.8882 28.25C22.2197 28.25 22.5376 28.1183 22.7721 27.8839C23.0065 27.6495 23.1382 27.3315 23.1382 27V25.75H24.3882C24.7197 25.75 25.0376 25.6183 25.2721 25.3839C25.5065 25.1495 25.6382 24.8315 25.6382 24.5C25.6382 24.1685 25.5065 23.8505 25.2721 23.6161C25.0376 23.3817 24.7197 23.25 24.3882 23.25Z" fill="#FF6E30" fill-opacity="0.55"/>
<path d="M31.2632 15.8125H22.5132L19.2257 11.8375C19.1094 11.6941 18.9627 11.5783 18.7963 11.4983C18.6299 11.4183 18.4478 11.3762 18.2632 11.375H12.5132C11.6964 11.365 10.909 11.679 10.3233 12.2483C9.7376 12.8176 9.40135 13.5958 9.38818 14.4125V29.5875C9.40135 30.4042 9.7376 31.1824 10.3233 31.7517C10.909 32.321 11.6964 32.635 12.5132 32.625H31.2632C32.0799 32.635 32.8674 32.321 33.4531 31.7517C34.0388 31.1824 34.375 30.4042 34.3882 29.5875V18.85C34.375 18.0333 34.0388 17.2551 33.4531 16.6858C32.8674 16.1165 32.0799 15.8025 31.2632 15.8125ZM31.8882 29.5625C31.8835 29.6392 31.8634 29.7142 31.8293 29.783C31.7951 29.8518 31.7475 29.9131 31.6892 29.9632C31.6309 30.0133 31.5632 30.0512 31.49 30.0747C31.4169 30.0982 31.3397 30.1068 31.2632 30.1H12.5132C12.4366 30.1068 12.3595 30.0982 12.2863 30.0747C12.2132 30.0512 12.1454 30.0133 12.0872 29.9632C12.0289 29.9131 11.9813 29.8518 11.9471 29.783C11.9129 29.7142 11.8929 29.6392 11.8882 29.5625V14.4125C11.8929 14.3358 11.9129 14.2608 11.9471 14.192C11.9813 14.1231 12.0289 14.0619 12.0872 14.0118C12.1454 13.9617 12.2132 13.9237 12.2863 13.9002C12.3595 13.8767 12.4366 13.8682 12.5132 13.875H17.6757L20.9257 17.85C21.042 17.9934 21.1886 18.1092 21.3551 18.1892C21.5215 18.2692 21.7036 18.3113 21.8882 18.3125H31.2632C31.3397 18.3057 31.4169 18.3142 31.49 18.3377C31.5632 18.3612 31.6309 18.3992 31.6892 18.4493C31.7475 18.4994 31.7951 18.5606 31.8293 18.6295C31.8634 18.6983 31.8835 18.7733 31.8882 18.85V29.5625Z" fill="#FF6E30"/>
</svg>
