<svg width="32" height="32" viewBox="0 0 32 32" fill="none" xmlns="http://www.w3.org/2000/svg">
<rect width="32" height="32" rx="8" fill="#FF6E30"/>
<path fill-rule="evenodd" clip-rule="evenodd" d="M16.8122 10.4723C16.5322 10.4723 16.2601 10.5069 16 10.5719C16.1674 9.06153 16.7703 7.68334 17.6811 6.56413C21.3028 6.99337 24.1121 10.0754 24.1121 13.813V19.1405C23.9667 19.1487 23.8202 19.1528 23.6726 19.1528C20.7753 19.1528 18.2492 17.5565 16.9287 15.1935H20.1528V13.813C20.1528 11.968 18.6572 10.4723 16.8122 10.4723Z" fill="white"/>
<path fill-rule="evenodd" clip-rule="evenodd" d="M7.79488 14.2743C7.79488 9.78947 11.4305 6.15381 15.9154 6.15381C18.1578 6.15381 20.1879 7.06272 21.6574 8.53224C20.3027 7.17759 18.4717 6.29934 16.4371 6.17034C15.0686 7.68487 14.2353 9.69221 14.2353 11.8942C14.2353 12.0584 14.2399 12.2216 14.2491 12.3836C13.7255 12.8454 13.3952 13.5213 13.3952 14.2743V14.8343H18.4355L14.7549 14.8343C15.9532 18.1026 19.0922 20.4347 22.7758 20.4347C23.2039 20.4347 23.6246 20.4032 24.0358 20.3424V23.7948H18.4355V20.4346H13.3952V23.7948H7.79488V17.6345V14.2743Z" fill="white"/>
</svg>
